<?xml version="1.0" encoding="UTF-8"?>
<svg id="_레이어_1" data-name="레이어 1" xmlns="http://www.w3.org/2000/svg" viewBox="0 0 701.11 701.11">
  <defs>
    <style>
      .cls-1 {
        fill: #050203;
        stroke-width: 0px;
      }
    </style>
  </defs>
  <path class="cls-1" d="M284.99,292.43c-30.57,34.42-29.38,87.13,3.6,120.1l58.25-58.25-61.85-61.85Z"/>
  <path class="cls-1" d="M288.59,412.53l-44.72,44.72c-27.33-27.33-44.26-65.07-44.26-106.69,0-83.24,67.72-150.96,150.96-150.96,41.62,0,79.36,16.93,106.69,44.26l-44.72,44.72c-32.76-32.76-85-34.14-119.43-4.17l61.8,61.8,57.63-57.63c32.76,32.76,34.14,85,4.17,119.43l49.63,49.63c.4-.43.81-.83,1.2-1.27.16-.18.32-.36.48-.55,1.56-1.74,3.09-3.52,4.58-5.33.29-.35.57-.7.85-1.05,1.33-1.65,2.63-3.32,3.89-5.02.36-.48.71-.96,1.06-1.45,1.16-1.6,2.29-3.22,3.39-4.86.37-.55.74-1.11,1.1-1.67,1.05-1.61,2.07-3.24,3.06-4.9.34-.57.68-1.13,1.01-1.7.98-1.69,1.94-3.4,2.86-5.13.27-.51.55-1.03.82-1.54.95-1.83,1.86-3.67,2.74-5.54.19-.41.38-.81.57-1.22.92-2,1.8-4.02,2.63-6.06.11-.27.22-.54.33-.81.88-2.18,1.71-4.38,2.49-6.6.05-.13.09-.26.14-.39.81-2.33,1.57-4.69,2.28-7.07,0-.02.01-.04.02-.05,2.14-7.21,3.77-14.63,4.86-22.23,0-.01,0-.02,0-.03.35-2.45.65-4.93.89-7.42,0-.09.01-.17.02-.26.23-2.41.4-4.84.52-7.28,0-.13,0-.25.01-.38.11-2.42.17-4.85.17-7.3s-.06-4.88-.17-7.3c0-.13,0-.25-.01-.38-.12-2.44-.3-4.86-.52-7.28,0-.09-.01-.17-.02-.26-.24-2.49-.54-4.96-.89-7.41,0-.01,0-.02,0-.03-1.09-7.6-2.73-15.02-4.86-22.23,0-.02-.01-.03-.02-.05-.71-2.38-1.47-4.73-2.28-7.06-.05-.13-.09-.26-.14-.4-.78-2.22-1.61-4.42-2.49-6.59-.11-.27-.22-.54-.33-.81-.84-2.04-1.71-4.06-2.63-6.06-.19-.41-.38-.81-.57-1.22-.88-1.87-1.79-3.72-2.74-5.54-.27-.52-.54-1.03-.81-1.54-.92-1.73-1.87-3.44-2.86-5.13-.33-.57-.67-1.14-1.01-1.71-.99-1.65-2.01-3.28-3.06-4.89-.36-.56-.73-1.12-1.1-1.67-1.1-1.64-2.23-3.26-3.39-4.86-.35-.48-.7-.97-1.05-1.45-1.26-1.7-2.56-3.37-3.89-5.02-.28-.35-.56-.7-.85-1.05-1.49-1.81-3.02-3.59-4.58-5.33-.16-.18-.32-.36-.48-.55-28.87-31.89-70.58-51.92-116.98-51.92-87.12,0-157.75,70.63-157.75,157.75,0,46.4,20.03,88.12,51.92,116.98.18.16.36.32.54.48,1.75,1.57,3.52,3.1,5.34,4.58.35.29.7.56,1.05.85,1.65,1.33,3.32,2.63,5.02,3.89.48.36.96.7,1.44,1.05,1.6,1.16,3.22,2.29,4.86,3.39.55.37,1.11.74,1.67,1.1,1.61,1.05,3.24,2.07,4.89,3.06.57.34,1.14.68,1.71,1.01,1.69.98,3.4,1.94,5.13,2.86.51.27,1.03.55,1.55.82,1.83.95,3.67,1.86,5.54,2.74.41.19.81.38,1.22.57,2,.92,4.02,1.8,6.06,2.63.27.11.54.22.81.33,2.17.88,4.37,1.71,6.59,2.49.13.05.26.09.39.14,2.33.81,4.68,1.57,7.06,2.28.02,0,.04.01.06.02,7.21,2.14,14.63,3.77,22.23,4.86.01,0,.03,0,.04,0,2.45.35,4.92.65,7.41.89.09,0,.18.01.26.02,2.41.23,4.83.4,7.27.52.13,0,.26,0,.39.01,2.42.11,4.85.17,7.29.17h0c2.45,0,4.88-.06,7.29-.17.13,0,.26,0,.39-.01,2.44-.12,4.86-.29,7.27-.52.09,0,.18-.02.27-.02,2.49-.24,4.95-.54,7.41-.89.01,0,.03,0,.04,0,7.6-1.09,15.01-2.73,22.22-4.86.02,0,.04-.01.07-.02,2.37-.7,4.73-1.46,7.05-2.28.13-.05.27-.09.4-.14,2.22-.78,4.42-1.61,6.59-2.49.27-.11.54-.22.82-.33,2.04-.84,4.06-1.71,6.05-2.63.41-.19.83-.38,1.24-.58,1.86-.88,3.71-1.79,5.53-2.73.52-.27,1.04-.55,1.56-.82,1.73-.92,3.43-1.87,5.12-2.86.57-.33,1.14-.67,1.71-1.01,1.65-.99,3.28-2.01,4.89-3.05.56-.36,1.12-.73,1.68-1.1,1.64-1.1,3.26-2.23,4.86-3.38.49-.35.97-.7,1.45-1.06,1.7-1.26,3.37-2.56,5.02-3.88.35-.28.71-.56,1.06-.85,1.81-1.49,3.59-3.01,5.33-4.58.18-.16.37-.32.55-.49.65-.59,1.26-1.21,1.9-1.81l-49.6-49.6c-34.42,30.57-87.13,29.38-120.1-3.6Z"/>
  <path class="cls-1" d="M189.43,511.68l-81.95,81.95c-31.57-31.57-56.36-68.34-73.67-109.27-17.92-42.38-27.01-87.4-27.01-133.81s9.09-91.43,27.01-133.81c17.31-40.93,42.1-77.7,73.67-109.27,31.57-31.57,68.34-56.36,109.27-73.67,42.38-17.92,87.39-27.01,133.81-27.01s91.43,9.09,133.81,27.01c40.93,17.31,77.7,42.1,109.27,73.67l-81.95,81.95c87.53,87.53,88.96,228.57,4.28,317.85l86.76,86.76c.59-.61,1.19-1.2,1.77-1.82.99-1.04,1.96-2.1,2.93-3.15.96-1.03,1.93-2.06,2.88-3.11,1.29-1.42,2.55-2.86,3.81-4.29.59-.68,1.2-1.34,1.78-2.03,1.47-1.7,2.9-3.41,4.33-5.12.35-.42.7-.84,1.05-1.26,1.59-1.92,3.14-3.86,4.68-5.81.17-.22.35-.44.52-.65,1.67-2.12,3.3-4.25,4.91-6.4.04-.05.08-.1.12-.15,10.2-13.63,19.28-27.84,27.24-42.49.04-.08.09-.16.13-.25,1.26-2.32,2.49-4.65,3.69-6.99.15-.3.3-.59.45-.89,1.08-2.12,2.14-4.26,3.18-6.4.28-.57.55-1.14.82-1.71.89-1.87,1.77-3.75,2.63-5.64.4-.89.8-1.78,1.2-2.67.7-1.58,1.4-3.16,2.08-4.75.53-1.24,1.05-2.48,1.56-3.72.52-1.25,1.03-2.5,1.54-3.76.64-1.59,1.26-3.2,1.88-4.8.35-.92.7-1.84,1.05-2.76.72-1.93,1.43-3.88,2.12-5.83.21-.6.43-1.21.64-1.81.78-2.24,1.54-4.49,2.27-6.75.11-.32.21-.65.32-.97.8-2.5,1.58-5.01,2.33-7.53.03-.1.06-.2.09-.3,4.73-15.98,8.35-32.44,10.78-49.28,0-.07.02-.15.03-.22.38-2.65.73-5.31,1.05-7.98.03-.28.06-.55.09-.83.29-2.47.56-4.94.8-7.42.05-.55.1-1.09.15-1.64.2-2.22.4-4.44.56-6.67.07-.91.11-1.82.17-2.73.12-1.89.25-3.78.34-5.69.07-1.43.11-2.86.16-4.29.05-1.42.12-2.83.15-4.25.14-5.78.14-11.57,0-17.35-.03-1.42-.1-2.83-.15-4.24-.05-1.43-.09-2.86-.16-4.3-.09-1.9-.22-3.79-.34-5.68-.06-.91-.11-1.82-.17-2.73-.16-2.23-.36-4.45-.56-6.67-.05-.55-.09-1.1-.15-1.64-.24-2.48-.51-4.95-.8-7.42-.03-.28-.06-.55-.1-.83-.32-2.67-.67-5.33-1.05-7.98-.01-.07-.02-.15-.03-.22-2.43-16.84-6.05-33.3-10.78-49.28-.03-.1-.06-.2-.09-.3-.75-2.52-1.52-5.03-2.33-7.53-.1-.33-.21-.65-.32-.97-.74-2.26-1.49-4.51-2.27-6.75-.21-.61-.43-1.21-.64-1.81-.69-1.95-1.39-3.89-2.12-5.83-.34-.92-.7-1.84-1.05-2.76-.62-1.6-1.24-3.2-1.88-4.8-.5-1.26-1.02-2.52-1.54-3.77-.51-1.24-1.03-2.48-1.56-3.71-.68-1.59-1.38-3.17-2.08-4.76-.4-.89-.79-1.78-1.2-2.66-.86-1.89-1.74-3.77-2.63-5.64-.27-.57-.54-1.14-.82-1.71-1.04-2.14-2.1-4.28-3.18-6.41-.15-.29-.3-.59-.45-.88-1.2-2.35-2.44-4.68-3.7-7-.04-.08-.08-.16-.13-.24-7.96-14.66-17.04-28.86-27.24-42.5-.04-.05-.07-.1-.11-.14-1.61-2.15-3.25-4.29-4.92-6.42-.17-.21-.34-.42-.5-.63-1.54-1.95-3.1-3.9-4.69-5.83-.34-.42-.69-.83-1.04-1.24-1.43-1.72-2.87-3.44-4.35-5.14-.58-.67-1.17-1.33-1.76-2-1.27-1.44-2.54-2.89-3.83-4.32-.94-1.04-1.9-2.05-2.86-3.08-.99-1.06-1.96-2.13-2.96-3.18-1.97-2.07-3.96-4.11-5.98-6.13-.02-.02-.05-.05-.07-.07h0C535,39.24,447.36,0,350.56,0,156.95,0,0,156.95,0,350.56c0,99.93,41.81,190.08,108.89,253.94,1.02.97,2.05,1.91,3.08,2.87,1.06.98,2.11,1.98,3.18,2.95,1.4,1.27,2.82,2.52,4.24,3.77.69.61,1.38,1.22,2.07,1.82,1.69,1.46,3.39,2.89,5.09,4.31.43.36.86.72,1.29,1.08,1.91,1.58,3.84,3.13,5.78,4.66.23.18.45.36.68.54,2.11,1.66,4.24,3.28,6.37,4.89.06.05.12.09.19.14,13.63,10.2,27.82,19.27,42.47,27.22.09.05.18.1.27.14,2.31,1.25,4.64,2.48,6.97,3.68.3.16.61.31.91.47,2.12,1.08,4.25,2.14,6.38,3.17.57.28,1.15.55,1.73.83,1.87.89,3.74,1.77,5.62,2.62.9.41,1.8.81,2.7,1.21,1.57.7,3.13,1.39,4.71,2.06,1.25.53,2.5,1.06,3.76,1.58,1.24.51,2.48,1.02,3.73,1.52,1.6.64,3.21,1.27,4.83,1.89.91.35,1.82.7,2.73,1.04,1.94.73,3.9,1.44,5.86,2.13.59.21,1.18.42,1.77.63,2.25.78,4.51,1.54,6.79,2.28.32.1.63.21.94.31,2.51.81,5.03,1.59,7.56,2.34.09.03.17.05.26.08,15.99,4.73,32.45,8.36,49.31,10.79.07,0,.13.02.2.03,2.66.38,5.33.74,8,1.06.27.03.54.06.8.09,2.47.29,4.95.56,7.44.8.54.05,1.08.09,1.61.14,2.23.2,4.46.4,6.7.56.9.07,1.8.11,2.69.17,1.91.12,3.81.25,5.72.34,1.41.07,2.83.11,4.24.16,1.43.05,2.86.12,4.3.15,2.84.07,5.68.11,8.52.11.05,0,.1,0,.15,0s.09,0,.14,0c2.84,0,5.69-.04,8.53-.11,1.44-.03,2.86-.1,4.29-.15,1.42-.05,2.83-.09,4.25-.16,1.91-.09,3.81-.22,5.72-.34.9-.06,1.8-.11,2.7-.17,2.24-.16,4.47-.36,6.69-.56.54-.05,1.08-.09,1.62-.14,2.49-.24,4.96-.51,7.43-.8.27-.03.54-.06.81-.09,2.67-.32,5.34-.68,7.99-1.06.07,0,.14-.02.2-.03,16.85-2.43,33.31-6.05,49.29-10.78.09-.03.19-.06.28-.08,2.52-.75,5.04-1.53,7.54-2.33.32-.1.65-.21.97-.31,2.26-.74,4.52-1.49,6.76-2.27.6-.21,1.2-.42,1.8-.63,1.95-.69,3.9-1.4,5.84-2.12.92-.34,1.84-.7,2.76-1.05,1.61-.62,3.21-1.24,4.8-1.88,1.25-.5,2.5-1.02,3.75-1.53,1.25-.52,2.49-1.04,3.73-1.57,1.58-.68,3.16-1.37,4.73-2.07.9-.4,1.79-.8,2.69-1.21,1.88-.86,3.76-1.74,5.63-2.63.57-.27,1.15-.55,1.72-.82,2.14-1.04,4.27-2.1,6.4-3.18.3-.15.6-.3.9-.46,2.34-1.2,4.67-2.43,6.99-3.69.08-.04.17-.09.25-.13,14.65-7.96,28.85-17.03,42.49-27.23.05-.04.11-.08.16-.12,2.15-1.61,4.28-3.24,6.4-4.91.22-.17.44-.35.66-.52,1.95-1.54,3.89-3.09,5.81-4.68.42-.35.83-.7,1.25-1.05,1.72-1.43,3.43-2.87,5.13-4.33.68-.59,1.35-1.2,2.03-1.79,1.43-1.26,2.87-2.51,4.28-3.8,1.05-.95,2.08-1.92,3.11-2.89,1.05-.98,2.11-1.94,3.15-2.93.82-.78,1.63-1.59,2.44-2.38l-86.76-86.76c-89.24,85.29-230.74,84.07-318.48-3.67Z"/>
</svg>