<?xml version="1.0" encoding="UTF-8"?>
<svg id="_레이어_2" data-name="레이어 2" xmlns="http://www.w3.org/2000/svg" viewBox="0 0 892.72 70.3">
  <defs>
    <style>
      .cls-1 {
        fill: #050203;
        stroke-width: 0px;
      }
    </style>
  </defs>
  <g id="_레이어_1-2" data-name="레이어 1">
    <g>
      <path class="cls-1" d="M72.05,44.73c-2.24,16.27-14.27,25.56-35.97,25.56C12.23,70.3,0,55.87,0,35.82S11.11,0,37.4,0c23.34,0,33.32,12.59,34.24,24.88h-27.62c-.41-5.13-2.34-8.33-7.03-8.33-6.62,0-8.05,7.07-8.05,18.4,0,10.07,1.12,18.69,7.95,18.69,5.4,0,6.83-4.26,7.44-8.91h27.72Z"/>
      <path class="cls-1" d="M328.45,43.76h-29.65v7.16h33.83l-2.95,17.62h-57.68V1.74h57.68v17.62h-30.88v6.78h29.65v17.62Z"/>
      <path class="cls-1" d="M454.41,68.55L431.38,1.74h29.45l6.22,25.76c2.14,8.33,2.75,12.1,4.28,20.43h.51c1.22-7.84,1.83-11.33,4.08-20.24l6.11-25.95h28.94l-23.44,66.81h-33.12Z"/>
      <path class="cls-1" d="M554.28,1.74v66.81h-28.23V1.74h28.23Z"/>
      <path class="cls-1" d="M575.68,68.55V1.74h32.61c5.4,15.4,8.36,25.95,11.11,35.92h.61c-.71-7.55-1.22-19.27-1.22-29.34V1.74h25.88v66.81h-31.18c-3.77-10.94-8.87-26.92-12.23-37.67h-.41c.92,7.84.71,18.3.71,29.73v7.94h-25.88Z"/>
      <path class="cls-1" d="M683.7,68.55v-22.66c0-1.07,0-1.65-.92-3.1l-23.95-41.06h31.69c3.16,8.52,5.81,16.27,8.46,24.01,2.44-7.36,6.32-16.95,8.87-24.01h29.25l-24.46,41.34c-.41.68-.71,1.84-.71,3v22.46h-28.23Z"/>
      <path class="cls-1" d="M750.76,1.74h28.23v49.19h30.37l-2.96,17.62h-55.64V1.74Z"/>
      <path class="cls-1" d="M849.92,47.54c.51,4.74,3.67,6.87,8.46,6.87,3.97,0,6.11-1.06,6.11-3.68,0-3-2.65-3.97-12.94-6.49-22.62-5.52-26.09-13.26-26.09-22.37,0-9.68,7.13-21.88,31.69-21.88,22.62,0,32.3,10.17,33.22,21.69h-25.88c-.41-3.39-2.14-5.71-6.73-5.71-3.06,0-4.89.87-4.89,3.1,0,2.42,2.24,3.19,12.53,5.9,23.74,6.2,27.31,14.04,27.31,23.33,0,12.59-10.5,21.98-34.34,21.98-22.32,0-33.53-9.49-34.75-22.75h26.29Z"/>
      <g>
        <path class="cls-1" d="M203.49,31.63v-9.91h13.39c8.67,0,13.51,4.19,14.81,9.91h21.52c-1.3-16.86-13.53-29.89-37.68-29.89h-33.32v29.89h21.28Z"/>
        <path class="cls-1" d="M231.64,38.66c-1.37,5.77-6.13,9.91-14.6,9.91h-13.55v-9.91h-21.28v29.89h33.73c23.56,0,35.59-12.86,37.2-29.89h-21.5Z"/>
      </g>
      <g>
        <path class="cls-1" d="M371.86,31.63v-9.91h13.39c8.67,0,13.51,4.19,14.81,9.91h21.52c-1.3-16.86-13.53-29.89-37.68-29.89h-33.32v29.89h21.28Z"/>
        <path class="cls-1" d="M400.01,38.66c-1.37,5.77-6.13,9.91-14.6,9.91h-13.55v-9.91h-21.28v29.89h33.73c23.56,0,35.59-12.86,37.2-29.89h-21.5Z"/>
      </g>
      <g>
        <path class="cls-1" d="M122.39,52.72c-4.03-2.28-5.2-8.71-5.2-17.77s1.46-15.3,5.2-17.41V.15c-23.65,1.65-34.14,17.42-34.14,35.09s10.33,33.71,34.14,34.96v-17.49Z"/>
        <path class="cls-1" d="M129.42.08v17.22c4.44,1.94,5.4,8.21,5.4,18.13,0,9.31-1.29,15.53-5.4,17.52v17.19c23.32-1.52,34.14-16.45,34.14-34.8S152.27,1.31,129.42.08Z"/>
      </g>
    </g>
  </g>
</svg>